<svg width="64" height="64" viewBox="0 0 64 64" fill="none" xmlns="http://www.w3.org/2000/svg">
  <rect width="64" height="64" rx="8" fill="#1a1a1a"/>
  <!-- Chess board pattern -->
  <rect x="8" y="8" width="6" height="6" fill="#f0f0f0"/>
  <rect x="20" y="8" width="6" height="6" fill="#333"/>
  <rect x="32" y="8" width="6" height="6" fill="#f0f0f0"/>
  <rect x="44" y="8" width="6" height="6" fill="#333"/>
  <rect x="14" y="14" width="6" height="6" fill="#f0f0f0"/>
  <rect x="26" y="14" width="6" height="6" fill="#333"/>
  <rect x="38" y="14" width="6" height="6" fill="#f0f0f0"/>
  <rect x="50" y="14" width="6" height="6" fill="#333"/>
  <rect x="8" y="20" width="6" height="6" fill="#f0f0f0"/>
  <rect x="20" y="20" width="6" height="6" fill="#333"/>
  <rect x="32" y="20" width="6" height="6" fill="#f0f0f0"/>
  <rect x="44" y="20" width="6" height="6" fill="#333"/>
  <!-- King piece -->
  <path d="M30 35L34 35L34 40L30 40Z" fill="#ffd700"/>
  <circle cx="32" cy="33" r="2" fill="#ffd700"/>
  <path d="M31 30L33 30L33 32L31 32Z" fill="#ffd700"/>
  <path d="M32 28L32 30" stroke="#ffd700" stroke-width="1"/>
  <path d="M30 29L34 29" stroke="#ffd700" stroke-width="1"/>
</svg>
